<svg width="181" height="33" viewBox="0 0 181 33" fill="none" xmlns="http://www.w3.org/2000/svg">
<path d="M6.86288 10.0875H7.31678V10.3901C6.90071 10.8818 5.84161 11.9409 4.13948 13.5674C5.62727 13.7817 7.06462 14.5382 8.45154 15.8369C9.35934 16.9212 9.81324 17.602 9.81324 17.8794L9.66194 18.6359V18.9385L10.1915 22.3428V23.3262H10.0402C9.9015 23.3262 9.7502 22.6958 9.58629 21.435C8.95587 20.4515 8.42632 19.4933 7.99764 18.5603C6.93853 17.0473 5.45075 15.9377 3.53428 15.2317H2.39953L1.18913 15.5343H1.03783L0.886525 15.383V15.0804C3.33255 12.8613 5.32467 11.197 6.86288 10.0875ZM7.96026 0.822695C9.28414 1.98266 10.3811 3.83609 11.251 6.38298C11.4276 6.97557 11.5158 7.56186 11.5158 8.14184C11.4654 8.99921 11.1123 10.7139 10.4567 13.2861L9.88934 13.4752L9.8326 11.6974C9.90825 11.4957 9.94607 11.1237 9.94607 10.5816V9.95745C9.94607 7.54925 9.29674 5.48779 7.99808 3.77305H7.92243V3.82979C8.21243 5.3554 8.35742 6.62884 8.35742 7.65012C8.35742 9.32703 7.89091 10.7896 6.95789 12.0378C6.85703 12.1387 6.58595 12.2206 6.14466 12.2837L6.03118 11.6407C6.39682 11.3633 6.64269 10.3609 6.76877 8.63357C7.02094 6.75493 6.79399 4.92671 6.08792 3.14894C6.56704 2.1907 7.19115 1.41529 7.96026 0.822695ZM14.5388 11.3735H14.9171L15.4845 11.4681V11.695L15.3332 11.9409L15.2575 11.8842H15.1629C14.5199 11.8842 14.1984 12.1237 14.1984 12.6028L14.5388 12.9433H14.9171C15.3836 12.9433 16.3544 12.5902 17.8296 11.8842C18.7122 11.6572 19.4435 11.5437 20.0235 11.5437C20.1748 11.7455 20.2504 11.9346 20.2504 12.1111C20.0739 12.7163 19.6704 13.0189 19.04 13.0189C19.04 13.208 19.5759 13.9456 20.6476 15.2317C21.2402 16.026 21.5365 16.8834 21.5365 17.8038L22.5956 20.4137H22.501C21.7067 19.6824 20.7421 18.6422 19.6074 17.2931L17.3379 14.8345C16.6949 14.3302 16.0771 14.078 15.4845 14.078C14.1606 14.1411 13.1393 14.2545 12.4206 14.4184C11.7272 14.4184 11.2985 14.1474 11.1346 13.6052C11.1346 12.7478 11.9478 12.1111 13.5743 11.695C13.5743 11.5816 13.8958 11.4744 14.5388 11.3735ZM26.1091 11.5626C26.4117 11.6257 26.6197 12.0229 26.7332 12.7541C27.4771 13.8258 28.4605 14.8282 29.6836 15.7612L30.1564 16.4421C29.9042 16.7573 29.7403 16.9149 29.6646 16.9149H29.6457L29.3431 16.8582C27.9058 16.5051 26.21 15.4649 24.2557 13.7376C24.0161 13.2585 23.8963 12.7983 23.8963 12.357C23.8963 12.1678 23.9215 11.9787 23.972 11.7896L26.1091 11.5626ZM37.4175 8.40425V8.80142L37.0392 9.19858C37.0392 10.1568 37.5184 11.1718 38.4766 12.2435L39.2331 12.565C40.6705 12.565 42.2339 12.4011 43.9234 12.0733C44.4277 12.2624 44.6799 12.5335 44.6799 12.8865C42.7634 14.803 41.1496 15.7612 39.8383 15.7612C38.9683 15.7612 37.9092 15.1749 36.661 14.0024L32.2733 15.0426L31.9707 14.9669V14.7967C33.3198 13.1702 34.3537 12.2624 35.0723 12.0733C34.6689 11.405 34.4671 10.9007 34.4671 10.5603V9.91726C34.568 9.71552 35.5515 9.21119 37.4175 8.40425ZM35.2993 12.4894L34.0132 13.7565L34.2402 14.0024L36.2827 13.5296C35.7532 12.8361 35.4254 12.4894 35.2993 12.4894ZM39.6114 13.435C40.0905 14.1284 40.7965 14.4752 41.7296 14.4752C42.2339 14.0465 42.4861 13.5422 42.4861 12.9622C40.8218 13.1765 39.8635 13.3341 39.6114 13.435ZM30.9455 8.10166C31.9163 8.64381 32.8493 8.95902 33.7445 9.04728L35.2764 9.16076L35.371 9.29314C34.8162 9.974 33.8958 10.2451 32.6098 10.1064L32.345 10.0875L32.0613 10.1253L31.8154 10.0307L31.5318 10.0118C31.0148 9.96139 30.4474 9.86052 29.8296 9.70922C29.3127 9.50749 28.7831 9.26162 28.241 8.97163L28.0708 8.04492V7.96927C28.0708 6.9606 29.2749 5.97084 31.6831 5L31.7587 4.94326L33.8958 4.79196C34.2993 4.77935 34.6775 4.77305 35.0306 4.77305C37.0101 4.77305 38.5168 5.03152 39.5507 5.54846C41.0258 5.97715 42.2173 6.77778 43.1251 7.95035C43.579 8.82033 44.0392 9.56422 44.5057 10.182C44.947 10.989 45.1677 11.4744 45.1677 11.6383V11.695C44.0708 10.5351 43.0558 9.60835 42.1228 8.91489C40.8619 7.88101 39.6894 7.23168 38.605 6.9669C36.6381 6.2104 34.6082 5.87628 32.5152 5.96454H32.4017C30.7248 6.2041 29.899 6.63278 29.9242 7.25059L29.962 7.38298C29.962 7.52167 30.2898 7.76123 30.9455 8.10166ZM50.9882 11.3735H51.3665L51.9338 11.4681V11.695L51.7825 11.9409L51.7069 11.8842H51.6123C50.9693 11.8842 50.6478 12.1237 50.6478 12.6028L50.9882 12.9433H51.3665C51.833 12.9433 52.8038 12.5902 54.279 11.8842C55.1616 11.6572 55.8929 11.5437 56.4728 11.5437C56.6241 11.7455 56.6998 11.9346 56.6998 12.1111C56.5233 12.7163 56.1198 13.0189 55.4894 13.0189C55.4894 13.208 56.0252 13.9456 57.097 15.2317C57.6895 16.026 57.9858 16.8834 57.9858 17.8038L59.0449 20.4137H58.9504C58.1561 19.6824 57.1915 18.6422 56.0568 17.2931L53.7873 14.8345C53.1442 14.3302 52.5264 14.078 51.9338 14.078C50.61 14.1411 49.5887 14.2545 48.87 14.4184C48.1765 14.4184 47.7479 14.1474 47.5839 13.6052C47.5839 12.7478 48.3972 12.1111 50.0237 11.695C50.0237 11.5816 50.3452 11.4744 50.9882 11.3735ZM62.5585 11.5626C62.8611 11.6257 63.0691 12.0229 63.1826 12.7541C63.9265 13.8258 64.9099 14.8282 66.1329 15.7612L66.6058 16.4421C66.3536 16.7573 66.1897 16.9149 66.114 16.9149H66.0951L65.7925 16.8582C64.3552 16.5051 62.6593 15.4649 60.705 13.7376C60.4655 13.2585 60.3457 12.7983 60.3457 12.357C60.3457 12.1678 60.3709 11.9787 60.4214 11.7896L62.5585 11.5626ZM70.6707 13.4917L70.6517 13.7565C70.8661 14.0843 71.1246 14.2608 71.4272 14.2861C72.335 13.9961 72.8078 13.4854 72.8456 12.7541L72.6376 12.4704V12.357C71.3389 12.71 70.6833 13.0883 70.6707 13.4917ZM76.9874 12.6785C77.7944 11.9346 78.6202 11.5942 79.465 11.6572L79.6352 11.6761C79.7108 11.6761 79.755 11.9031 79.7676 12.357C79.7928 12.7983 79.9882 13.2774 80.3539 13.7943L80.8078 15.0236C80.5934 15.1749 80.3917 15.3893 80.2026 15.6667L79.4461 15.7045C79.1561 15.6793 78.7841 15.5343 78.3302 15.2695L77.9898 14.8156L76.8172 14.7967C75.8842 15.1119 75.1025 15.238 74.4721 15.1749C73.6904 15.1245 73.1167 14.866 72.751 14.3995C71.9189 14.8786 70.7211 15.2317 69.1577 15.4586C68.6407 15.2443 68.3822 15.0489 68.3822 14.8723V14.8534C68.4327 13.9961 69.9142 12.9243 72.8267 11.6383C73.4949 11.5248 74.2577 11.4681 75.1151 11.4681C75.2034 12.8928 75.632 13.6367 76.4012 13.6998L77.3657 13.5296L76.9874 12.6785ZM92.8141 11.2411C93.5706 11.405 94.1064 11.7455 94.4216 12.2624V12.8487C94.2325 13.29 92.9275 14.0339 90.5067 15.0804L89.4476 15.2128H88.2561C86.4279 15.3767 84.8014 15.4586 83.3767 15.4586C83.0363 15.093 82.8661 14.7841 82.8661 14.5319V14.4374C82.8661 13.2143 84.5808 12.2057 88.0103 11.4113C88.4011 11.55 88.5966 11.6635 88.5966 11.7518V11.8274C88.5083 12.0418 87.4429 12.5776 85.4003 13.435L85.3058 13.5106V13.6052C85.3058 13.9961 85.7282 14.1915 86.5729 14.1915C87.3672 14.1915 87.7644 13.9961 87.7644 13.6052C88.2814 12.8991 89.1765 12.3633 90.45 11.9976C90.7904 11.9976 91.5784 11.7455 92.8141 11.2411ZM90.4311 12.8298C90.4185 13.5611 90.6832 13.9582 91.2254 14.0213H91.3767C91.7045 13.8448 91.9315 13.6493 92.0576 13.435V13.2648C91.9693 12.9117 91.7739 12.7352 91.4713 12.7352H91.2254L90.4311 12.8298ZM100.758 11.4113C101.704 11.4113 102.177 11.5626 102.177 11.8652C102.416 12.6974 103.097 13.4098 104.219 14.0024L105.108 14.3995V14.4752C104.73 14.9417 104.364 15.1749 104.011 15.1749H103.463C102.378 15.1749 101.527 14.7841 100.91 14.0024L99.8126 12.6974H99.2074C98.8039 13.1387 98.2114 13.8258 97.4296 14.7589L96.9568 14.1726C97.0199 13.4791 97.3162 12.8361 97.8457 12.2435C98.7913 11.6887 99.7622 11.4113 100.758 11.4113ZM109.695 11.5626C109.998 11.6257 110.206 12.0229 110.319 12.7541C111.063 13.8258 112.047 14.8282 113.27 15.7612L113.743 16.4421C113.49 16.7573 113.327 16.9149 113.251 16.9149H113.232L112.929 16.8582C111.492 16.5051 109.796 15.4649 107.842 13.7376C107.602 13.2585 107.483 12.7983 107.483 12.357C107.483 12.1678 107.508 11.9787 107.558 11.7896L109.695 11.5626ZM119.491 11.4113C120.436 11.4113 120.909 11.5626 120.909 11.8652C121.149 12.6974 121.83 13.4098 122.952 14.0024L123.841 14.3995V14.4752C123.462 14.9417 123.097 15.1749 122.744 15.1749H122.195C121.111 15.1749 120.26 14.7841 119.642 14.0024L118.545 12.6974H117.94C117.536 13.1387 116.944 13.8258 116.162 14.7589L115.689 14.1726C115.752 13.4791 116.049 12.8361 116.578 12.2435C117.524 11.6887 118.495 11.4113 119.491 11.4113ZM134.518 15.6099C133.169 16.8455 131.17 18.3396 128.522 20.0922L127.993 20.3381V20.4326H129.203C132.683 20.5965 135.961 21.5359 139.038 23.2506C139.176 23.2506 139.58 23.7486 140.248 24.7447C143.829 28.1994 145.821 30.7967 146.225 32.5366L145.922 32.7069C143.816 28.5461 140.79 25.6399 136.844 23.9882C133.477 22.7778 130.426 22.1726 127.69 22.1726L127.388 22.078L127.085 22.1726H126.782C125.345 22.1726 123.176 22.8345 120.277 24.1584L120.125 23.9882V23.7423C122.886 21.6367 125.106 20.5839 126.782 20.5839C128.938 19.5248 131.258 17.7849 133.742 15.3641C134.196 14.7589 134.423 14.1789 134.423 13.6241L134.272 12.8676L132.608 12.792H131.775C129.657 12.792 128.598 13.0378 128.598 13.5296V13.6998L128.749 13.87H129.128L132.532 13.1135L132.456 13.6241C132.456 14.2797 132.683 14.6076 133.137 14.6076V14.7021C132.28 15.5343 131.7 15.9504 131.397 15.9504C130.653 15.9504 130.124 15.4775 129.808 14.5319C128.938 14.8597 128.283 15.0236 127.842 15.0236C127.526 15.0236 127.173 14.8849 126.782 14.6076C126.782 13.9645 127.287 13.4161 128.295 12.9622C129.266 12.0165 131.158 11.5437 133.969 11.5437C135.684 11.5437 136.541 11.7392 136.541 12.13L136.617 12.6217C136.617 13.3404 135.917 14.3365 134.518 15.6099ZM127.705 6.58865L133.454 7.19385C135.535 7.19385 137.628 7.62254 139.733 8.47991L140.339 9.31206L140.414 9.91726C138.813 9.09771 135.308 8.4673 129.899 8.026L127.251 7.95035H126.722L124.376 8.17731L123.355 8.21513L123.923 7.79905C125.335 6.99212 126.596 6.58865 127.705 6.58865ZM148.353 11.3924C158.894 15.5784 165.639 17.7533 168.589 17.9173H168.665C172.675 18.1442 175.909 16.8392 178.367 14.0024C179.401 13.4476 180.17 13.1891 180.675 13.227V13.3026C178.657 15.7991 175.808 17.5075 172.126 18.4279C170.411 18.7809 169.157 18.9574 168.362 18.9574H168.154L167.398 18.9007C164.927 18.762 162.109 18.1001 158.944 16.9149C153.51 15.3388 149.122 13.9519 145.781 12.7541C145.188 13.5737 143.801 13.9267 141.62 13.8132L141.544 13.7943C140.738 13.1261 140.284 12.6974 140.183 12.5083C140.233 12.4074 141.015 12.0229 142.528 11.3546C143.133 12.1994 143.764 12.6407 144.419 12.6785C145.037 12.5902 146.348 12.1615 148.353 11.3924Z" fill="#5E1721"/>
</svg>
