<svg width="600" height="501" viewBox="0 0 600 501" fill="none" xmlns="http://www.w3.org/2000/svg">
<mask id="path-1-inside-1_238_177" fill="white">
<path d="M0.304639 136.427C0.332419 60.2534 -0.290367 10.787 0.170364 0.927095C36.6551 1.25231 35.1949 2.86919 106.317 0.927095C154.86 0.921611 209.638 2.31348 236.497 0.927095C263.357 -0.45929 303.59 0.927095 361.67 0.0397006C387.735 -0.358531 430.265 2.42709 486.343 0.0524169C546.426 2.42709 600 0.927095 600 0.927095C599.771 18.181 598.977 25.2154 600 47.4271C599.809 79.5676 599.346 38.5404 600 215.927C599.407 227.449 599.106 236.027 600 346.427C599.054 440.071 599.771 448.157 600 499.927C578.346 500.362 570.442 499.826 517.386 499.927C459.413 500.738 426.112 501.703 372.185 499.927C307.464 498.819 271.177 497.808 206.456 499.927C121.483 499.293 77.1522 499.413 0.170364 499.927C0.773251 469.968 1.15576 436.846 0.939731 398.427C1.68514 364.722 2.23734 329.815 0.963643 291.927C1.48424 259.322 1.85652 227.178 0.613294 195.927C0.694977 176.104 0.541971 155.879 0.304639 136.427Z"/>
</mask>
<path d="M0.170364 0.927095L4.62699 -499.053L-476.812 -503.344L-499.285 -22.4113L0.170364 0.927095ZM0.304639 136.427L-499.695 136.245L-499.696 139.386L-499.658 142.527L0.304639 136.427ZM106.317 0.927095L106.261 -499.073L99.4636 -499.072L92.6691 -498.887L106.317 0.927095ZM236.497 0.927095L210.724 -498.408L236.497 0.927095ZM361.67 0.0397006L369.309 499.981L361.67 0.0397006ZM600 0.927095L1099.96 7.55398L1106.86 -513.46L586.006 -498.877L600 0.927095ZM486.343 0.0524169L506.089 -499.558L485.638 -500.366L465.189 -499.5L486.343 0.0524169ZM600 47.4271L1099.99 50.3933L1100.07 37.3978L1099.47 24.4159L600 47.4271ZM600 215.927L1099.34 241.624L1100.05 227.863L1100 214.084L600 215.927ZM600 499.927L610.044 999.826L1102.18 989.938L1100 497.712L600 499.927ZM600 346.427L1099.97 351.476L1100.02 346.928L1099.98 342.38L600 346.427ZM517.386 499.927L516.433 -0.0719986L513.413 -0.0662445L510.394 -0.0240207L517.386 499.927ZM372.185 499.927L388.64 0.197953L384.695 0.06802L380.747 0.000412112L372.185 499.927ZM0.170364 499.927L-499.728 489.867L-510.062 1003.35L3.51097 999.916L0.170364 499.927ZM206.456 499.927L202.724 999.913L212.773 999.988L222.817 999.659L206.456 499.927ZM0.939731 398.427L-498.938 387.372L-499.091 394.305L-499.052 401.239L0.939731 398.427ZM0.963643 291.927L-498.973 283.945L-499.171 296.338L-498.754 308.726L0.963643 291.927ZM0.613294 195.927L-499.382 193.867L-499.428 204.839L-498.992 215.802L0.613294 195.927ZM-499.285 -22.4113C-499.783 -11.7553 -499.887 -2.43489 -499.924 0.910582C-499.978 5.7833 -499.995 10.7223 -499.999 15.0728C-500.007 23.7669 -499.967 34.5351 -499.921 45.8559C-499.825 69.2343 -499.682 99.481 -499.695 136.245L500.305 136.609C500.319 97.1995 500.165 64.6261 500.071 41.7629C500.023 29.9629 499.995 21.7549 500.001 16.0206C500.002 14.6893 500.005 13.681 500.008 12.9435C500.012 12.1837 500.015 11.9059 500.014 12.0012C500.014 12.0262 500.004 12.9486 499.97 14.4825C499.943 15.6944 499.856 19.3208 499.625 24.2655L-499.285 -22.4113ZM92.6691 -498.887C60.3162 -498.003 50.878 -498.118 47.9763 -498.163C45.2912 -498.205 44.1427 -498.248 35.8159 -498.476C27.9521 -498.691 17.899 -498.935 4.62699 -499.053L-4.28627 500.907C0.684026 500.952 4.13018 501.032 8.47656 501.151C12.3598 501.257 22.1324 501.557 32.5331 501.718C55.8031 502.077 81.1959 501.799 119.965 500.741L92.6691 -498.887ZM210.724 -498.408C215.134 -498.636 215.374 -498.525 208.314 -498.478C202.219 -498.437 194.132 -498.459 183.301 -498.541C164.456 -498.683 132.952 -499.076 106.261 -499.073L106.374 500.927C128.225 500.925 148.382 501.225 175.776 501.431C188.064 501.523 201.742 501.588 214.989 501.5C227.271 501.418 244.431 501.183 262.271 500.262L210.724 -498.408ZM354.032 -499.902C330.4 -499.541 310.548 -499.636 288.884 -499.701C271.813 -499.753 240.471 -499.944 210.724 -498.408L262.271 500.262C259.044 500.429 258.779 500.354 263.881 500.307C268.87 500.26 275.379 500.262 285.868 500.294C305.556 500.353 334.861 500.508 369.309 499.981L354.032 -499.902ZM600 0.927095C586.006 -498.877 586.024 -498.878 586.043 -498.878C586.048 -498.878 586.066 -498.879 586.078 -498.879C586.101 -498.88 586.123 -498.88 586.145 -498.881C586.188 -498.882 586.228 -498.883 586.265 -498.884C586.339 -498.886 586.4 -498.888 586.45 -498.889C586.549 -498.892 586.6 -498.893 586.605 -498.893C586.614 -498.894 586.438 -498.889 586.088 -498.881C585.386 -498.865 583.997 -498.835 582.009 -498.8C578.009 -498.731 571.725 -498.646 563.833 -498.616C547.588 -498.556 526.767 -498.74 506.089 -499.558L466.597 499.662C506.002 501.22 542.009 501.472 567.572 501.377C580.584 501.328 591.448 501.187 599.372 501.049C603.345 500.98 606.611 500.911 609.073 500.855C610.305 500.826 611.339 500.801 612.162 500.78C612.574 500.77 612.933 500.76 613.239 500.752C613.392 500.748 613.531 500.744 613.657 500.741C613.72 500.739 613.78 500.737 613.836 500.736C613.864 500.735 613.891 500.734 613.917 500.733C613.931 500.733 613.95 500.732 613.956 500.732C613.975 500.732 613.994 500.731 600 0.927095ZM465.189 -499.5C450.766 -498.889 436.874 -498.879 421.119 -499.143C410.95 -499.313 406.7 -499.447 394.11 -499.695C385.038 -499.874 369.972 -500.145 354.032 -499.902L369.309 499.981C366.401 500.026 366.426 499.953 374.411 500.111C378.878 500.199 393.653 500.538 404.385 500.717C430.43 501.153 465.842 501.369 507.497 499.605L465.189 -499.5ZM1099.47 24.4159C1099.41 23.0913 1099.44 23.5005 1099.47 25.0957C1099.5 26.8946 1099.49 28.6216 1099.48 29.7386C1099.47 29.9539 1099.46 30.1237 1099.59 25.5493C1099.69 21.6556 1099.85 15.2897 1099.96 7.55398L100.044 -5.69979C100.032 -4.8086 100.012 -3.825 99.9339 -0.852921C99.8734 1.43843 99.6881 7.99017 99.5856 14.8972C99.3293 32.1613 99.5711 49.6302 100.53 70.4382L1099.47 24.4159ZM1100 214.084C1099.67 124.827 1099.63 92.7475 1099.68 79.0273C1099.7 73.6187 1099.73 72.5043 1099.75 71.0813C1099.83 66.6086 1099.93 61.0629 1099.99 50.3933L100.009 44.4609C99.9768 49.8616 99.9456 51.2401 99.9035 53.6577C99.8082 59.1249 99.7248 64.8668 99.6865 75.3922C99.6206 93.5403 99.6784 129.641 100.003 217.771L1100 214.084ZM1100 497.712C1099.74 441.097 1099.08 440.277 1099.97 351.476L100.025 341.378C99.031 439.865 99.797 455.218 100.005 502.142L1100 497.712ZM1099.98 342.38C1099.53 286.937 1099.41 259.637 1099.44 245.179C1099.46 238.123 1099.51 236.494 1099.49 237.412C1099.43 239.811 1099.31 242.256 1099.34 241.624L100.661 190.23C99.1086 220.391 99.1822 247.419 100.016 350.474L1099.98 342.38ZM518.339 999.926C542.788 999.88 556.382 999.978 567.507 1000.04C579.749 1000.12 592.456 1000.18 610.044 999.826L589.956 0.0279896C585.889 0.109693 583.817 0.122639 573.43 0.0611097C561.925 -0.00703965 545.039 -0.126511 516.433 -0.0719986L518.339 999.926ZM355.729 999.656C424.239 1001.91 471.649 1000.62 524.377 999.878L510.394 -0.0240207C447.177 0.86005 427.985 1.49353 388.64 0.197953L355.729 999.656ZM3.51097 999.916C78.7503 999.413 120.653 999.301 202.724 999.913L210.187 -0.0589827C122.314 -0.714788 75.554 -0.587732 -3.17024 -0.0617467L3.51097 999.916ZM222.817 999.659C272.891 998.02 296.48 998.704 363.623 999.854L380.747 0.000412112C318.447 -1.06661 269.463 -2.40372 190.094 0.194866L222.817 999.659ZM-499.052 401.239C-498.865 434.539 -499.193 463.283 -499.728 489.867L500.069 509.987C500.74 476.654 501.177 439.152 500.932 395.616L-499.052 401.239ZM-498.754 308.726C-497.974 331.941 -498.228 355.249 -498.938 387.372L500.818 409.482C501.598 374.194 502.448 327.69 500.681 275.128L-498.754 308.726ZM-499.658 142.527C-499.438 160.551 -499.316 177.806 -499.382 193.867L500.609 197.987C500.706 174.402 500.522 151.207 500.267 130.327L-499.658 142.527ZM-498.992 215.802C-498.368 231.471 -498.444 250.836 -498.973 283.945L500.9 299.909C501.412 267.807 502.081 222.885 500.218 176.052L-498.992 215.802Z" fill="black" mask="url(#path-1-inside-1_238_177)"/>
</svg>
