<svg width="180" height="50" viewBox="0 0 180 50" fill="none" xmlns="http://www.w3.org/2000/svg">
<path d="M28.516 29.24H49.028V32.056H28.516V29.24ZM29.668 37.976H47.844V40.792H29.668V37.976ZM26.372 19.576L29.412 20.44C28.8147 21.9547 28.1 23.4373 27.268 24.888C26.4573 26.3387 25.572 27.6933 24.612 28.952C23.652 30.2107 22.66 31.3093 21.636 32.248C21.508 32.0347 21.3053 31.7787 21.028 31.48C20.772 31.16 20.4947 30.84 20.196 30.52C19.9187 30.1787 19.6733 29.9227 19.46 29.752C20.8893 28.536 22.212 27.032 23.428 25.24C24.644 23.4267 25.6253 21.5387 26.372 19.576ZM37.22 22.584H40.292V39.448H37.22V22.584ZM24.004 25.496L26.02 23.416L26.98 23.704V41.656H24.004V25.496ZM30.596 21.336H47.364V24.184H30.596V21.336ZM20.324 14.456H33.796V17.144H20.324V14.456ZM26.116 11.96H29.124V19.256H26.116V11.96ZM39.908 11.96H42.884V19.544H39.908V11.96ZM35.108 14.456H48.772V17.144H35.108V14.456ZM57.092 28.28H85.38V31.096H57.092V28.28ZM69.604 22.936H72.804V41.656H69.604V22.936ZM80.42 19.64L82.564 22.04C81.0493 22.424 79.364 22.776 77.508 23.096C75.6733 23.416 73.7533 23.704 71.748 23.96C69.764 24.216 67.748 24.44 65.7 24.632C63.6733 24.8027 61.7 24.9413 59.78 25.048C59.7373 24.7067 59.6307 24.2907 59.46 23.8C59.3107 23.288 59.1613 22.872 59.012 22.552C60.9107 22.424 62.852 22.264 64.836 22.072C66.82 21.88 68.7613 21.6667 70.66 21.432C72.5587 21.176 74.34 20.8987 76.004 20.6C77.6893 20.3013 79.1613 19.9813 80.42 19.64ZM57.124 14.584H70.596V17.4H57.124V14.584ZM63.076 11.96H66.052V20.12H63.076V11.96ZM76.548 11.96H79.556V19.416H76.548V11.96ZM71.908 14.584H85.572V17.4H71.908V14.584ZM93.668 19.736H103.556V22.584H93.668V19.736ZM97.316 12.376H100.228V33.848H97.316V12.376ZM93.124 34.552C94.3613 34.168 95.8653 33.6667 97.636 33.048C99.4067 32.408 101.199 31.7573 103.012 31.096L103.588 33.848C101.967 34.5307 100.324 35.2027 98.66 35.864C96.996 36.504 95.4813 37.1013 94.116 37.656L93.124 34.552ZM106.98 11.992H109.796V28.536H106.98V11.992ZM116.932 11.992H119.78V28.6H116.932V11.992ZM104.452 14.776H122.5V17.368H104.452V14.776ZM108.9 19.288H117.796V21.464H108.9V19.288ZM108.9 23.48H117.796V25.656H108.9V23.48ZM103.62 27.768H122.948V30.328H103.62V27.768ZM111.332 29.144H113.604C113.54 30.3813 113.391 31.4587 113.156 32.376C112.921 33.2933 112.516 34.0827 111.94 34.744C111.385 35.384 110.575 35.928 109.508 36.376C109.401 36.12 109.22 35.832 108.964 35.512C108.708 35.1707 108.452 34.904 108.196 34.712C109.028 34.3707 109.657 33.9653 110.084 33.496C110.532 33.0053 110.841 32.408 111.012 31.704C111.183 30.9787 111.289 30.1253 111.332 29.144ZM115.396 29.112H117.764V32.536C117.764 32.8987 117.796 33.1547 117.86 33.304C117.924 33.4533 118.063 33.528 118.276 33.528C118.361 33.528 118.521 33.528 118.756 33.528C118.991 33.528 119.236 33.528 119.492 33.528C119.769 33.528 120.025 33.528 120.26 33.528C120.495 33.528 120.655 33.528 120.74 33.528C120.975 33.528 121.241 33.5173 121.54 33.496C121.839 33.4747 122.095 33.4213 122.308 33.336C122.351 33.656 122.383 34.04 122.404 34.488C122.447 34.936 122.489 35.2987 122.532 35.576C122.34 35.64 122.084 35.6933 121.764 35.736C121.444 35.7573 121.124 35.768 120.804 35.768C120.697 35.768 120.527 35.768 120.292 35.768C120.057 35.768 119.801 35.768 119.524 35.768C119.247 35.768 118.991 35.768 118.756 35.768C118.543 35.768 118.393 35.768 118.308 35.768C117.519 35.768 116.911 35.672 116.484 35.48C116.079 35.2667 115.791 34.9253 115.62 34.456C115.471 33.9653 115.396 33.3147 115.396 32.504V29.112ZM105.156 28.728H107.908V36.28C107.908 36.8773 108.025 37.304 108.26 37.56C108.495 37.7947 108.985 37.912 109.732 37.912C109.988 37.912 110.415 37.912 111.012 37.912C111.609 37.912 112.281 37.912 113.028 37.912C113.796 37.912 114.564 37.912 115.332 37.912C116.1 37.912 116.783 37.912 117.38 37.912C117.999 37.912 118.447 37.912 118.724 37.912C119.3 37.912 119.961 37.9013 120.708 37.88C121.455 37.8373 122.041 37.7733 122.468 37.688C122.511 38.0507 122.553 38.488 122.596 39C122.66 39.5333 122.724 39.9707 122.788 40.312C122.447 40.3973 121.892 40.4507 121.124 40.472C120.356 40.5147 119.567 40.536 118.756 40.536C118.5 40.536 118.063 40.536 117.444 40.536C116.825 40.536 116.121 40.536 115.332 40.536C114.543 40.536 113.775 40.536 113.028 40.536C112.281 40.536 111.631 40.536 111.076 40.536C110.521 40.536 110.159 40.536 109.988 40.536C108.772 40.536 107.812 40.408 107.108 40.152C106.404 39.896 105.903 39.4587 105.604 38.84C105.305 38.2 105.156 37.3253 105.156 36.216V28.728ZM142.948 11.992H146.084V20.28H142.948V11.992ZM143.236 30.488H146.372V41.688H143.236V30.488ZM136.836 26.52V29.112H153.124V26.52H136.836ZM136.836 21.656V24.184H153.124V21.656H136.836ZM133.828 19.192H156.26V31.544H133.828V19.192ZM144.484 14.36H158.02V16.952H144.484V14.36ZM130.564 33.912H159.332V36.664H130.564V33.912Z" fill="#5E1721"/>
</svg>
